inDegrees=yes
name=ik_S55_A04_T02
DataType=double
version=3
OpenSimVersion=4.3-2021-08-27-4bc7ad9
endheader
time	pelvis_tilt	pelvis_list	pelvis_rotation	pelvis_tx	pelvis_ty	pelvis_tz	hip_flexion_r	hip_adduction_r	hip_rotation_r	knee_angle_r	knee_angle_r_beta	ankle_angle_r	subtalar_angle_r	mtp_angle_r	hip_flexion_l	hip_adduction_l	hip_rotation_l	knee_angle_l	knee_angle_l_beta	ankle_angle_l	subtalar_angle_l	mtp_angle_l	lumbar_extension	lumbar_bending	lumbar_rotation	arm_flex_r	arm_add_r	arm_rot_r	elbow_flex_r	pro_sup_r	wrist_flex_r	wrist_dev_r	arm_flex_l	arm_add_l	arm_rot_l	elbow_flex_l	pro_sup_l	wrist_flex_l	wrist_dev_l
12.33999999999983	7.352183222196672	1.903708276385569	22.56574321188369	0	0.9399999999999999	0	0.5118019565994921	-6.892123813922052	-9.920847555511003	12.15714973174227	0.212182290476848	0	0	0	-1.961351573820265	-11.05731231814076	-4.249190978454199	12.86735903507532	0.2245777811983049	0	0	0	0	0	0	24.18099180092177	-24.18099180092177	3.693550161647923	67.47264576954315	86.30645004819162	0	0	24.18099180092177	-24.18099180092177	3.693550161647923	67.47264576954315	86.30645004794901	0	0
12.35999999999983	7.472533363122089	1.890108070958825	22.55446560365489	0	0.9399999999999999	0	-0.8929495363231081	-6.916933659019811	-10.8076417548624	10.8621187087439	0.189579735210056	0	0	0	-2.292872520150667	-11.05631793817401	-4.410297850558623	12.39134510601982	0.2162697708509317	0	0	0	0	0	0	24.18594374421336	-24.18594374421336	3.694161325666743	67.48113009605559	86.30583888420591	0	0	24.18594374421336	-24.18594374421336	3.694161325666743	67.48113009605559	86.30583888396343	0	0
12.37999999999982	7.591991289889863	1.964658341141479	22.568582665524	0	0.9399999999999999	0	-1.007393559126069	-6.906404899793627	-10.78820202290253	10.59811959970305	0.1849720815349616	0	0	0	-2.565508058396379	-11.02215788438363	-4.323149064543463	12.13206607690628	0.2117444981115262	0	0	0	0	0	0	24.25607693334899	-24.25607693334899	3.702572942898966	67.59715777443	86.29742726742749	0	0	24.25607693334899	-24.25607693334899	3.702572942898966	67.59715777443	86.29742726718654	0	0
12.39999999999982	7.771780902481201	2.079639409576293	22.60207916392389	0	0.9399999999999999	0	-1.218057419445026	-6.939887246556522	-10.83797168272014	10.51151562850378	0.183460557092232	0	0	0	-2.87330958826957	-10.99939570552097	-4.390315312252215	12.09816025641073	0.2111527299082886	0	0	0	0	0	0	24.25792313582897	-24.25792313582897	3.702798272812064	67.60028110858329	86.29720193752659	0	0	24.25792313582897	-24.25792313582897	3.702798272812064	67.60028110858329	86.29720193728569	0	0
12.41999999999982	7.808270179431553	2.117959515027203	22.65090084613865	0	0.9399999999999999	0	-1.265323522262225	-6.953435017925805	-10.90121600352495	10.49051901453247	0.1830940970466624	0	0	0	-2.962105083980046	-10.99975073709395	-4.692372286510144	12.03806671545918	0.2101038997595021	0	0	0	0	0	0	24.25878419228556	-24.25878419228556	3.702903671772678	67.60174248499699	86.29709653857171	0	0	24.25878419228556	-24.25878419228556	3.702903671772678	67.60174248499699	86.29709653833079	0	0
12.43999999999982	7.827677426470562	2.134889827875035	22.65216486515212	0	0.9399999999999999	0	-2.288000082073233	-6.889397455221222	-10.84379239100579	9.393743525883993	0.1639517536145768	0	0	0	-3.035201372711401	-10.99131665161502	-4.712339698868279	11.9059479783351	0.20779799279311	0	0	0	0	0	0	24.26261104321584	-24.26261104321584	3.703372739601833	67.60824712390396	86.29662747076796	0	0	24.26261104321584	-24.26261104321584	3.703372739601833	67.60824712390396	86.29662747052707	0	0
12.45999999999982	7.697632072444164	2.073513842606763	22.69643911515911	0	0.9399999999999999	0	-2.188478876456198	-6.871390496062761	-10.93130731261914	9.25124389036425	0.1614646657918655	0	0	0	-2.905281995673341	-10.99020306985362	-4.980044345953148	11.79899579207477	0.2059313250006609	0	0	0	0	0	0	24.2644952444441	-24.2644952444441	3.703603916492296	67.61145314899565	86.29639629389004	0	0	24.2644952444441	-24.2644952444441	3.703603916492296	67.61145314899565	86.29639629364918	0	0
12.47999999999982	7.725772815188955	2.067997143321866	22.69479640924217	0	0.9399999999999999	0	-2.226617967641038	-6.850036274314429	-10.81494685314043	9.174810366894537	0.1601306491484186	0	0	0	-2.929172660865297	-11.00551935119696	-4.989207028111579	11.77335156058418	0.2054837487270066	0	0	0	0	0	0	24.30568660639136	-24.30568660639136	3.708382773722642	67.67682266659145	86.29161743691571	0	0	24.30568660639136	-24.30568660639136	3.708382773722642	67.67682266659145	86.29161743667574	0	0
